Coordinates
version=1
nRows=9
nColumns=36
inDegrees=yes

Units are S.I. units (second, meters, Newtons, ...)
If the header above contains a line with 'inDegrees', this indicates whether rotational values are in degrees (yes) or radians (no).

endheader
time	pelvis_tilt	pelvis_list	pelvis_rotation	pelvis_tx	pelvis_ty	pelvis_tz	hip_flexion_r	hip_adduction_r	hip_rotation_r	knee_angle_r	knee_angle_r_beta	ankle_angle_r	subtalar_angle_r	mtp_angle_r	hip_flexion_l	hip_adduction_l	hip_rotation_l	knee_angle_l	knee_angle_l_beta	ankle_angle_l	subtalar_angle_l	mtp_angle_l	lumbar_extension	lumbar_bending	lumbar_rotation	arm_flex_r	arm_add_r	arm_rot_r	elbow_flex_r	pro_sup_r	arm_flex_l	arm_add_l	arm_rot_l	elbow_flex_l	pro_sup_l
      1.33333330	     -0.42990016	      1.95254452	     -0.03994342	      0.05010188	      1.18545423	      0.05647889	      5.08817631	     -2.62839601	     -2.89030893	      2.21755630	      0.03870366	      6.08895695	     -4.29425364	     -7.49999987	      3.68166208	      1.50018927	      5.72580167	      1.30468130	      0.02277098	      4.30989397	     -3.17579276	     -7.49999987	     -9.25200566	     -0.91281260	     -3.17923629	     13.77039706	     -4.89255455	      8.48508914	     37.41718072	     77.18732566	     13.38846333	     -6.14655379	      7.27110503	     35.03924983	     72.41791989
      1.35000000	     -0.47052788	      1.96602607	      0.07669644	      0.05903418	      1.18061880	      0.05424959	      4.76140301	     -2.77011039	     -3.03998040	      2.40612180	      0.04199475	      6.43976524	     -4.70363953	     -7.49999987	      3.42342403	      1.49608799	      5.61444562	      1.34926079	      0.02354904	      4.61977064	     -2.99232307	     -7.49999987	     -9.19227023	     -0.89195297	     -2.95197238	     11.95578562	     -4.61540746	      5.24394986	     37.48108276	     85.84349387	     11.91628468	     -5.81497956	      5.46186609	     34.20118310	     80.03006656
      1.36666670	     -0.49936357	      1.92622855	      0.18881481	      0.06250907	      1.17962925	      0.05384380	      4.36407212	     -2.81013178	     -3.05612415	      2.56381379	      0.04474699	      6.95246517	     -5.17311470	     -7.49999987	      3.11533071	      1.45629066	      5.52151462	      1.33752943	      0.02334429	      5.04763762	     -2.92165276	     -7.49999987	     -9.08011795	     -0.76545127	     -2.97443023	     10.31382024	     -4.54541076	      4.23462740	     36.93719892	     86.45366927	     10.18589170	     -5.66062168	      4.50882723	     33.26162697	     80.98222099
      1.38333330	     -0.60051386	      1.94602558	      0.34925361	      0.06415797	      1.17481125	      0.05392036	      4.12902234	     -2.84975190	     -2.80011072	      2.71503073	      0.04738623	      7.64394169	     -5.54256153	     -7.49999987	      2.85432063	      1.49781038	      5.61102029	      1.34447292	      0.02346548	      5.66353303	     -2.85762479	     -7.49999987	     -8.82619148	     -0.72348204	     -2.97084566	      8.56875758	     -4.46661814	      3.16082792	     36.14779472	     87.21612543	      8.40694563	     -5.68022933	      3.92460909	     32.26966785	     81.73436838
      1.40000000	     -0.80687615	      2.04375560	      0.55853781	      0.06115650	      1.17478715	      0.05456397	      4.16751017	     -2.89722722	     -2.28596868	      2.78329159	      0.04857760	      8.46279571	     -5.67875251	     -7.49999987	      2.81146911	      1.61608056	      5.90259232	      1.22416514	      0.02136571	      6.26960285	     -2.90668694	     -7.49999987	     -8.58966330	     -0.74238744	     -3.12594997	      6.86212860	     -4.49134107	      2.93723469	     35.46765409	     87.19448907	      6.64247907	     -5.95319864	      3.80581456	     31.38292206	     81.73885088
      1.41666670	     -1.23162672	      2.15823026	      0.84503209	      0.06002283	      1.16944715	      0.05344728	      4.64870208	     -3.04103123	     -1.84964968	      2.98848233	      0.05215886	      9.20882815	     -5.97263164	     -7.49999987	      3.15521046	      1.77761185	      6.17216552	      1.20547472	      0.02103950	      6.79312018	     -3.23820284	     -7.49999987	     -8.06599259	     -0.81583157	     -3.16029984	      5.03151637	     -4.36432493	      1.55187392	     34.27684790	     87.53027347	      5.20023465	     -6.11911878	      3.75368314	     29.64723988	     81.93590155
      1.43333330	     -1.72550292	      2.31416425	      1.00219043	      0.05876207	      1.17120176	      0.05503277	      5.28098238	     -3.17553668	     -1.22655289	      3.14856223	      0.05495278	      9.58768786	     -6.53648434	     -7.49999987	      3.60786689	      1.94003613	      6.39156287	      1.18104750	      0.02061317	      7.07867130	     -3.52985466	     -7.49999987	     -7.64103445	     -0.94479817	     -3.33817317	      3.41420269	     -4.27717660	      1.20726611	     32.71688008	     84.61345647	      3.58880954	     -6.30490953	      3.31917497	     27.94052006	     79.31885871
      1.45000000	     -2.14281723	      2.42945575	      1.23241970	      0.05904009	      1.17122146	      0.05580957	      5.84133321	     -3.29264541	     -0.77924262	      3.21007280	      0.05602634	     10.02326046	     -6.69126280	     -7.49999987	      4.05729849	      2.10045326	      6.64266151	      1.18320084	      0.02065075	      7.25572892	     -3.77361126	     -7.49999987	     -7.48795923	     -1.02784295	     -3.43425414	      1.38626834	     -4.09724106	     -1.11913378	     31.78263691	     89.73589755	      1.96732293	     -6.60868071	      2.44896908	     26.59918770	     82.92397094
      1.46666670	     -2.61576331	      2.50646441	      1.33641261	      0.05701812	      1.16659816	      0.05624022	      6.50806698	     -3.30417555	     -0.28387335	      3.32676422	      0.05806299	     10.40574365	     -6.96931169	     -7.49999987	      4.65288191	      2.21631502	      6.91916868	      1.22964836	      0.02146141	      7.50027921	     -4.00614417	     -7.49999987	     -7.36959447	     -1.08918234	     -3.69966245	     -0.28603467	     -4.24612164	     -0.92890815	     30.00020867	     88.29327294	      0.15481148	     -7.01357955	      2.18040244	     25.33867802	     81.71125360
